<?xml version="1.0" standalone="no"?>
<!DOCTYPE svg PUBLIC "-//W3C//DTD SVG 20010904//EN"
 "http://www.w3.org/TR/2001/REC-SVG-20010904/DTD/svg10.dtd">
<svg version="1.0" xmlns="http://www.w3.org/2000/svg"
 width="85.000000pt" height="85.000000pt" viewBox="0 0 85.000000 85.000000"
 preserveAspectRatio="xMidYMid meet">
<metadata>
Created by potrace 1.11, written by Peter Selinger 2001-2013
</metadata>
<g transform="translate(0.000000,85.000000) scale(0.100000,-0.100000)"
fill="#000000" stroke="none">
<path d="M102 773 c-7 -11 -10 -12 -7 -3 5 10 2 10 -8 -2 -8 -10 -18 -14 -23
-10 -4 4 -2 -1 5 -11 12 -15 12 -17 -3 -11 -12 4 -16 0 -16 -16 0 -14 -4 -19
-12 -14 -7 4 -10 3 -5 -1 4 -5 0 -19 -9 -33 -9 -13 -11 -22 -6 -18 6 4 10 -2
9 -14 -1 -14 -6 -19 -17 -15 -11 5 -12 3 -3 -6 6 -6 9 -18 6 -27 -4 -10 -2
-13 5 -8 7 4 12 2 12 -3 0 -6 -6 -11 -12 -11 -9 0 -8 -4 2 -10 8 -5 11 -10 6
-10 -5 0 -2 -8 5 -17 9 -11 10 -14 2 -9 -9 5 -11 2 -7 -8 3 -9 11 -13 18 -9 6
4 6 0 -2 -9 -10 -13 -10 -19 3 -32 9 -9 14 -16 10 -16 -3 0 4 -10 15 -22 12
-13 16 -24 11 -26 -5 -2 -1 -12 10 -23 11 -11 17 -24 14 -29 -4 -6 4 -10 17
-10 18 0 20 -2 8 -10 -11 -7 -11 -10 -2 -10 7 0 10 -5 6 -12 -4 -7 -3 -8 4 -4
13 8 35 -27 24 -40 -4 -5 2 -2 12 6 11 8 17 10 13 4 -4 -7 0 -15 9 -18 10 -4
14 -12 10 -22 -6 -14 -4 -15 9 -4 9 7 15 9 14 4 -4 -23 3 -34 22 -34 18 0 20
-2 9 -16 -8 -8 -9 -14 -4 -13 19 6 51 -12 64 -36 7 -14 18 -25 23 -25 6 0 2
10 -9 22 l-19 22 27 -20 c15 -10 28 -25 28 -32 0 -7 4 -11 9 -8 5 4 11 1 13
-6 3 -7 11 -9 24 -3 10 4 23 7 27 6 5 -1 6 3 2 9 -3 5 -1 10 5 10 6 0 9 4 6 9
-3 5 2 8 12 7 10 0 16 5 14 13 -3 12 -1 12 14 0 10 -8 15 -9 11 -3 -3 6 5 17
18 24 14 7 25 17 25 22 0 5 -6 6 -12 2 -9 -5 -8 -2 1 9 9 12 17 14 26 7 13
-10 35 5 35 25 0 6 7 20 16 31 8 10 13 12 9 4 -4 -8 3 -4 15 10 12 14 18 19
14 11 -5 -10 -3 -12 5 -7 9 6 9 11 0 22 -10 12 -9 13 6 8 13 -5 16 -4 11 4 -4
7 -2 12 4 12 6 0 8 4 5 10 -6 9 8 14 28 11 5 -1 6 3 2 9 -3 5 4 24 15 41 12
16 23 41 24 55 0 14 6 22 13 20 7 -3 10 1 7 8 -3 8 0 17 6 21 6 4 8 16 4 27
-5 16 -3 19 7 12 12 -6 12 -5 0 9 -8 11 -9 17 -3 17 7 0 9 7 5 17 -4 11 -3 14
6 9 9 -6 9 -3 -1 13 -11 18 -11 23 2 31 12 8 12 10 -5 11 -11 0 -15 3 -8 5 7
3 9 12 6 20 -3 7 -10 11 -17 7 -6 -4 -5 1 3 10 12 15 9 21 -11 19 -3 -1 -9 5
-12 14 -3 8 -1 12 4 9 6 -3 7 1 4 10 -4 9 -8 14 -11 11 -2 -2 -16 7 -31 20
-25 24 -31 25 -149 23 -74 -1 -123 -5 -123 -11 0 -6 -7 -7 -16 -4 -8 3 -13 2
-11 -2 3 -4 -1 -13 -9 -20 -13 -12 -18 -8 -15 12 1 5 -4 4 -12 -3 -12 -9 -15
-8 -13 6 1 16 -11 18 -129 21 -115 2 -131 0 -143 -15z m488 -557 c0 -3 -4 -8
-10 -11 -5 -3 -10 -1 -10 4 0 6 5 11 10 11 6 0 10 -2 10 -4z"/>
</g>
</svg>
